# xmcd CD database file
# Copyright (C) 1993-1998 Ti Kan
#
# Track frame offsets:
#  150
#  18112
#  35415
#  52842
#  71392
#  89942
#  108997
#  129237
#  145467
#  163155
#  179695
#  195267
#  213570
#  231895
#  248722
#  270055
#
# Disc length: 3876 seconds
#
# Revision: 1
# Processed by: cddbd v1.4b41PL1 Copyright (c) Steve Scherf et al.
# Submitted via: CDWizzard Release:4.32
#
DISCID=d90f2210
DTITLE=Various Artist - Club Mix: The 80's
DYEAR=1900
DGENRE=
TTITLE0=I feel for you - Chaka Kahn
TTITLE1=Freeway of love
TTITLE2=Oh Shelia
TTITLE3=When Smokey Sings
TTITLE4=Let it whip
TTITLE5=Would I Lie To You
TTITLE6=Mercedes Boy
TTITLE7=Never gonna give you up
TTITLE8=Baby Love
TTITLE9=Obsession
TTITLE10=The Promise
TTITLE11=Catch Me (I'm Falling)
TTITLE12=Crush On You
TTITLE13=Fascinated
TTITLE14=I wanna be a Cowboy
TTITLE15=Digging Your Scene
EXTD=
EXTT0=Chaka Khan\n
EXTT1=Aretha Franklin
EXTT2=Ready for the World
EXTT3=Abc
EXTT4=Dazz Band
EXTT5=Eurythmics
EXTT6=Pebbles
EXTT7=Rick Astley
EXTT8=Regina
EXTT9=Animotion
EXTT10=When In Rome
EXTT11=Pretty Poison
EXTT12=The Jets
EXTT13=Company B
EXTT14=Boys Don't Cry
EXTT15=The Blow Monkeys
PLAYORDER=
